<svg width="300" height="40" viewBox="0 0 300 40" fill="none" xmlns="http://www.w3.org/2000/svg">
<g clip-path="url(#clip0)">
<path d="M168.322 35.2729H168.311V34.5643C168.311 33.7388 167.639 33.0674 166.814 33.0674H166.641L166.429 31.0209C166.397 30.7181 166.143 30.4883 165.838 30.4883H165.688L165.124 15.408L165.59 13.3667H165.82C166.148 13.3667 166.414 13.1009 166.414 12.7731V12.2305L166.614 12.3126C166.804 12.3914 167.004 12.4304 167.203 12.4304C167.405 12.4304 167.607 12.3904 167.799 12.3105C168.181 12.1512 168.478 11.8527 168.634 11.4706L169.415 9.5758C169.74 8.78601 169.361 7.87963 168.572 7.55553L150.856 0.260903C150.262 0.0170669 149.608 0.0170669 149.013 0.261208L139.593 4.14C139.29 4.26482 139.145 4.6115 139.27 4.91484C139.395 5.21819 139.742 5.36254 140.045 5.23772L149.465 1.35954C149.764 1.23686 150.106 1.23686 150.404 1.35923L168.12 8.65356C168.305 8.72924 168.393 8.94042 168.317 9.12414L167.537 11.019C167.5 11.1081 167.431 11.1774 167.342 11.2146C167.253 11.2515 167.155 11.2518 167.066 11.2149L150.161 4.25536C150.016 4.19585 149.854 4.19585 149.709 4.25536L132.803 11.2149C132.62 11.2909 132.408 11.2024 132.333 11.0187L131.553 9.12414C131.516 9.03503 131.516 8.93707 131.553 8.84796C131.59 8.75915 131.66 8.69018 131.749 8.65325L137.848 6.14165C138.152 6.01683 138.296 5.66985 138.171 5.36681C138.046 5.06346 137.699 4.91912 137.396 5.04393L131.298 7.55523C130.915 7.71239 130.617 8.00933 130.457 8.39111C130.298 8.77319 130.297 9.19403 130.455 9.57641L131.235 11.4709C131.56 12.2604 132.467 12.6379 133.256 12.3126L133.456 12.2305V12.7731C133.456 13.1009 133.721 13.3667 134.049 13.3667H134.254L134.72 15.4068L134.156 30.4883H134.005C133.701 30.4883 133.446 30.7181 133.415 31.0209L133.203 33.0674H133.03C132.205 33.0674 131.533 33.7388 131.533 34.5643V35.2729H131.522C130.64 35.2729 129.922 35.9907 129.922 36.8726V38.3414C129.922 39.2237 130.64 39.9412 131.522 39.9412H156.301C156.629 39.9412 156.895 39.6754 156.895 39.3476C156.895 39.0198 156.629 38.754 156.301 38.754H131.522C131.294 38.754 131.109 38.5688 131.109 38.3414V36.8726C131.109 36.6453 131.294 36.4603 131.522 36.4603H168.322C168.55 36.4603 168.735 36.6453 168.735 36.8726V38.3414C168.735 38.5691 168.55 38.754 168.322 38.754H158.676C158.348 38.754 158.083 39.0198 158.083 39.3476C158.083 39.6754 158.348 39.9412 158.676 39.9412H168.322C169.204 39.9412 169.922 39.2237 169.922 38.3414V36.8726C169.922 35.9907 169.204 35.2729 168.322 35.2729ZM155.112 33.0674L154.9 31.0209C154.869 30.7181 154.614 30.4883 154.31 30.4883H154.16L153.595 15.408L154.061 13.3667H157.311L157.777 15.4083L157.213 30.4883H157.062C156.758 30.4883 156.503 30.7181 156.472 31.0209L156.26 33.0674H155.112ZM152.526 14.7583H147.318L147 13.3667H152.843L152.526 14.7583ZM147.417 15.9457H152.427L152.971 30.4883H146.873L147.417 15.9457ZM146.069 31.6755H153.774L153.919 33.0674H145.925L146.069 31.6755ZM157.598 31.6755H165.303L165.447 33.0674H157.454L157.598 31.6755ZM158.401 30.4883L158.945 15.9457H163.956L164.5 30.4883H158.401ZM164.054 14.7583H158.847L158.529 13.3667H164.372L164.054 14.7583ZM149.935 5.44646L165.227 11.7416V12.1793H134.643V11.7416L149.935 5.44646ZM145.783 13.3667L146.249 15.4083L145.684 30.4883H145.534C145.23 30.4883 144.975 30.7181 144.943 31.0209L144.731 33.0674H143.584L143.372 31.0209C143.34 30.7181 143.085 30.4883 142.781 30.4883H142.631L142.066 15.4065L142.532 13.3667H145.783ZM135.472 13.3667H141.314L140.997 14.7583H135.79L135.472 13.3667ZM135.888 15.9457H140.898L141.443 30.4883H135.344L135.888 15.9457ZM134.541 31.6755H142.246L142.39 33.0674H134.396L134.541 31.6755ZM132.721 35.2729V34.5643C132.721 34.3937 132.86 34.2548 133.03 34.2548H166.814C166.984 34.2548 167.123 34.3937 167.123 34.5643V35.2729H132.721Z" fill="#B88A34"/>
<path d="M149.935 11.8579C151.499 11.8579 152.772 10.585 152.772 9.02064C152.772 7.456 151.499 6.18341 149.935 6.18341C148.37 6.18341 147.098 7.456 147.098 9.02064C147.098 10.5853 148.37 11.8579 149.935 11.8579ZM149.935 7.37055C150.844 7.37055 151.585 8.11091 151.585 9.02064C151.585 9.93037 150.844 10.6704 149.935 10.6704C149.025 10.6704 148.285 9.93037 148.285 9.02064C148.285 8.11091 149.025 7.37055 149.935 7.37055Z" fill="#B88A34"/>
</g>
<rect y="20" width="100" height="3" fill="#B88A34"/>
<rect x="200" y="20" width="100" height="3" fill="#B88A34"/>
<defs>
<clipPath id="clip0">
<rect width="40" height="40" fill="white" transform="translate(130)"/>
</clipPath>
</defs>
</svg>
