<svg width="60" height="60" viewBox="0 0 60 60" fill="none" xmlns="http://www.w3.org/2000/svg">
<g clip-path="url(#clip0)">
<path d="M59.9976 41.4444C59.9977 41.4308 59.9991 41.4175 59.9991 41.4039C59.9991 41.4009 59.9988 41.3979 59.9986 41.3948C59.9985 41.3728 59.9969 41.3508 59.9953 41.3286C59.9945 41.3178 59.994 41.3071 59.9928 41.2965C59.9907 41.2774 59.9873 41.2585 59.9841 41.2394C59.9818 41.2258 59.9798 41.2121 59.9769 41.1986C59.9736 41.184 59.9695 41.1695 59.9656 41.1548C59.9609 41.1373 59.9565 41.1198 59.9509 41.1029C59.9473 41.0917 59.9428 41.0806 59.9388 41.0694C59.9315 41.0496 59.9241 41.03 59.9156 41.0108C59.9143 41.0079 59.9133 41.0047 59.9119 41.0016L49.632 18.3855V15.4212H49.6968C50.8044 15.4212 51.7054 14.5201 51.7054 13.4125V13.2586C51.7054 12.2675 50.9953 11.4336 50.0169 11.2756L33.0445 8.53672V6.79646C33.6887 6.07451 34.0812 5.12346 34.0812 4.08207C34.0812 1.83123 32.25 0 29.9991 0C27.7483 0 25.9171 1.83123 25.9171 4.08207C25.9171 5.12346 26.3096 6.07451 26.9538 6.79646V8.44225L9.9712 11.2727C8.99876 11.4349 8.29289 12.2681 8.29289 13.254V13.4125C8.29289 14.5201 9.19392 15.4212 10.3015 15.4212H10.3663V18.3855L0.0862372 41.0016C0.0848118 41.0046 0.0839046 41.0079 0.0826087 41.0108C0.0741854 41.0299 0.0667988 41.0496 0.0595418 41.0693C0.0553949 41.0804 0.0509889 41.0916 0.0472308 41.1029C0.0416584 41.1198 0.0371228 41.1373 0.0325871 41.1548C0.0286995 41.1695 0.0245526 41.184 0.0213128 41.1986C0.0184619 41.2121 0.0163884 41.2258 0.0140558 41.2394C0.0108161 41.2585 0.00744676 41.2774 0.00537333 41.2965C0.00420702 41.3071 0.00381825 41.318 0.00291113 41.3287C0.00122646 41.3508 -0.000199025 41.3728 -0.000458204 41.3947C-0.000458204 41.3978 -0.000976562 41.4008 -0.000976562 41.4038C-0.000976562 41.4175 0.000448923 41.4308 0.000578513 41.4446C0.00109687 41.4555 0.000967282 41.4665 0.00187441 41.4774C0.0625223 45.4751 5.01881 48.5961 11.3382 48.5961C17.6577 48.5961 22.614 45.4751 22.6745 41.4775C22.6754 41.4666 22.6753 41.4556 22.6758 41.4446C22.6759 41.431 22.6773 41.4176 22.6773 41.404C22.6773 41.401 22.6769 41.3981 22.6768 41.3949C22.6767 41.3729 22.6751 41.3509 22.6734 41.3287C22.6727 41.318 22.6722 41.3072 22.671 41.2966C22.6689 41.2775 22.6655 41.2586 22.6623 41.2396C22.66 41.226 22.658 41.2122 22.655 41.1987C22.6518 41.1841 22.6477 41.1696 22.6438 41.1549C22.6391 41.1375 22.6347 41.12 22.6291 41.103C22.6255 41.0918 22.621 41.0807 22.6169 41.0695C22.6097 41.0497 22.6023 41.0301 22.5937 41.011C22.5925 41.008 22.5915 41.0049 22.5901 41.0018L12.3102 18.3855V15.4212H26.9538V36.5372C26.3363 36.8802 25.9171 37.5386 25.9171 38.2937V52.6116L19.7603 54.5356C18.4821 54.9351 17.6233 56.1032 17.6233 57.4424V59.0281C17.6233 59.5648 18.0584 60 18.5953 60H41.403C41.9399 60 42.375 59.5648 42.375 59.0281V57.4423C42.375 56.1031 41.5162 54.935 40.238 54.5355L34.0812 52.6116V38.2937C34.0812 37.5386 33.662 36.8802 33.0445 36.5372V15.4212H47.6881V18.3855L37.408 41.0018C37.4066 41.0048 37.4057 41.008 37.4044 41.011C37.396 41.03 37.3886 41.0497 37.3813 41.0694C37.3772 41.0806 37.3728 41.0917 37.369 41.103C37.3635 41.12 37.3589 41.1375 37.3544 41.1549C37.3505 41.1696 37.3464 41.1841 37.3431 41.1987C37.3403 41.2122 37.3382 41.226 37.3359 41.2396C37.3326 41.2586 37.3293 41.2775 37.3272 41.2966C37.326 41.3072 37.3256 41.3181 37.3247 41.3289C37.323 41.3509 37.3216 41.3729 37.3213 41.3948C37.3213 41.3979 37.3208 41.4009 37.3208 41.4039C37.3208 41.4176 37.3223 41.431 37.3224 41.4447C37.3229 41.4556 37.3228 41.4666 37.3237 41.4775C37.3843 45.4751 42.3406 48.5961 48.66 48.5961C54.9795 48.5961 59.9358 45.4751 59.9963 41.4775C59.9972 41.4665 59.9971 41.4555 59.9976 41.4444ZM11.3382 20.9449L20.196 40.432H2.48053L11.3382 20.9449ZM11.3382 46.6523C6.83786 46.6523 2.95483 44.7756 2.11224 42.3758H20.5644C19.7217 44.7756 15.8386 46.6523 11.3382 46.6523ZM32.1374 38.2937V52.3542H27.8609V38.2937C27.8609 38.258 27.8901 38.2289 27.9257 38.2289H32.0726C32.1082 38.2289 32.1374 38.258 32.1374 38.2937ZM28.8976 36.2851V8.01188C29.2483 8.11037 29.6175 8.16415 29.9991 8.16415C30.3808 8.16415 30.75 8.11037 31.1007 8.01188V36.2851H28.8976ZM29.9991 1.94384C31.1782 1.94384 32.1374 2.90307 32.1374 4.08207C32.1374 5.26108 31.1782 6.2203 29.9991 6.2203C28.8201 6.2203 27.8609 5.26108 27.8609 4.08207C27.8609 2.90307 28.8201 1.94384 29.9991 1.94384ZM10.3015 13.4773C10.2659 13.4773 10.2367 13.4483 10.2367 13.4125V13.254C10.2367 13.2222 10.2595 13.1953 10.2909 13.1902L26.9538 10.413V13.4773H10.3015ZM40.4311 57.4423V58.0562H19.5672V57.4423C19.5672 56.9579 19.8778 56.5353 20.3402 56.3909L27.0374 54.2981H32.961L39.6582 56.3909C40.1205 56.5354 40.4311 56.9579 40.4311 57.4423ZM33.0445 10.5058L49.707 13.1947C49.7386 13.1997 49.7616 13.2267 49.7616 13.2587V13.4127C49.7616 13.4484 49.7324 13.4775 49.6968 13.4775H33.0445V10.5058ZM48.66 20.9449L57.5178 40.432H39.8023L48.66 20.9449ZM48.66 46.6523C44.1597 46.6523 40.2766 44.7756 39.434 42.3758H57.8862C57.0435 44.7756 53.1604 46.6523 48.66 46.6523Z" fill="#B88A34"/>
</g>
<defs>
<clipPath id="clip0">
<rect width="60" height="60" fill="white"/>
</clipPath>
</defs>
</svg>
